<?xml version="1.0" encoding="utf-8"?>
<!-- Generator: Adobe Illustrator 16.0.4, SVG Export Plug-In . SVG Version: 6.00 Build 0)  -->
<!DOCTYPE svg PUBLIC "-//W3C//DTD SVG 1.1//EN" "http://www.w3.org/Graphics/SVG/1.1/DTD/svg11.dtd">
<svg version="1.1" id="Layer_1" xmlns="http://www.w3.org/2000/svg" xmlns:xlink="http://www.w3.org/1999/xlink" x="0px" y="0px"
	 width="30.555px" height="26.389px" viewBox="0 0 30.555 26.389" enable-background="new 0 0 30.555 26.389" xml:space="preserve">
<g>
	<path fill="none" stroke="#FFFFFF" stroke-miterlimit="10" d="M21.448,19.666c0,1.1-0.9,2-2,2H9.781c-1.1,0-2-0.9-2-2V9.999
		c0-1.1,0.9-2,2-2h9.667c1.1,0,2,0.9,2,2V19.666z"/>
</g>
<path fill="#FFFFFF" d="M14.013,14.649l8.014-10.474c0,0,0.225-0.373,0.82,0c0.597,0.373,2.051,1.547,2.051,1.547
	s0.238,0.232-0.041,0.642S17.15,16.733,17.15,16.733l-2.373,1.252c0,0-1.305,0.578-1.062-0.54L14.013,14.649z"/>
</svg>
