<?xml version="1.0" encoding="utf-8"?>
<!-- Generator: Adobe Illustrator 16.0.4, SVG Export Plug-In . SVG Version: 6.00 Build 0)  -->
<!DOCTYPE svg PUBLIC "-//W3C//DTD SVG 1.1//EN" "http://www.w3.org/Graphics/SVG/1.1/DTD/svg11.dtd">
<svg version="1.1" id="Layer_1" xmlns="http://www.w3.org/2000/svg" xmlns:xlink="http://www.w3.org/1999/xlink" x="0px" y="0px"
	 width="54.861px" height="37.5px" viewBox="0 0 54.861 37.5" enable-background="new 0 0 54.861 37.5" xml:space="preserve">
<g>
	<path fill="none" stroke="#6EB1D4" stroke-width="2" stroke-miterlimit="10" d="M6.653,34.054
		c0.014,0.207,0.191-10.62,6.921-10.752c0,0,4.419-0.293,6.187,1.841c1.768,2.136,2.799,0.148,3.239,0
		c0.443-0.146,2.136-2.015,3.683-1.854c1.545,0.161,5.154,2.665,4.934,10.396"/>
	<path fill="none" stroke="#6EB1D4" stroke-width="2" stroke-miterlimit="10" d="M35.143,29.415c0,0-0.589-4.86-4.05-7.068
		c0,0,0.515-2.136,2.43-2.211c1.915-0.073,3.462,1.253,3.534,1.474c0.074,0.221,1.559,0.516,2.172-0.332
		c0.774-1.066,9.611-4.639,10.715,3.72l0.295,4.418"/>
	<ellipse fill="none" stroke="#6EB1D4" stroke-width="2" stroke-miterlimit="10" cx="21.324" cy="14.362" rx="6.572" ry="7.162"/>
	<ellipse fill="none" stroke="#6EB1D4" stroke-width="2" stroke-miterlimit="10" cx="38.374" cy="10.573" rx="6.167" ry="6.72"/>
</g>
</svg>
