<?xml version="1.0" encoding="utf-8"?>
<!-- Generator: Adobe Illustrator 16.0.4, SVG Export Plug-In . SVG Version: 6.00 Build 0)  -->
<!DOCTYPE svg PUBLIC "-//W3C//DTD SVG 1.1//EN" "http://www.w3.org/Graphics/SVG/1.1/DTD/svg11.dtd">
<svg version="1.1" id="Layer_1" xmlns="http://www.w3.org/2000/svg" xmlns:xlink="http://www.w3.org/1999/xlink" x="0px" y="0px"
	 width="72.5px" height="53.5px" viewBox="0 0 72.5 53.5" enable-background="new 0 0 72.5 53.5" xml:space="preserve">
<g>
	<path fill="none" stroke="#FFFFFF" stroke-miterlimit="10" d="M12.316,34.256c0.015,0.207,0.191-10.621,6.921-10.751
		c0,0,4.42-0.293,6.188,1.84c1.768,2.137,2.799,0.148,3.239,0c0.442-0.145,2.136-2.014,3.683-1.854
		c1.545,0.161,5.154,2.666,4.934,10.396"/>
	<path fill="none" stroke="#FFFFFF" stroke-miterlimit="10" d="M40.808,29.618c0,0-0.589-4.859-4.05-7.068
		c0,0,0.515-2.135,2.43-2.211c1.915-0.072,3.462,1.254,3.534,1.475c0.074,0.221,1.559,0.516,2.172-0.332
		c0.774-1.066,9.611-4.639,10.715,3.721l0.295,4.418"/>
	<ellipse fill="none" stroke="#FFFFFF" stroke-miterlimit="10" cx="26.988" cy="14.565" rx="6.572" ry="7.162"/>
	<ellipse fill="none" stroke="#FFFFFF" stroke-miterlimit="10" cx="44.039" cy="10.776" rx="6.167" ry="6.72"/>
</g>
</svg>
