<?xml version="1.0" encoding="utf-8"?>
<!-- Generator: Adobe Illustrator 16.0.4, SVG Export Plug-In . SVG Version: 6.00 Build 0)  -->
<!DOCTYPE svg PUBLIC "-//W3C//DTD SVG 1.1//EN" "http://www.w3.org/Graphics/SVG/1.1/DTD/svg11.dtd">
<svg version="1.1" id="Layer_1" xmlns="http://www.w3.org/2000/svg" xmlns:xlink="http://www.w3.org/1999/xlink" x="0px" y="0px"
	 width="37.465px" height="33.682px" viewBox="0 0 37.465 33.682" enable-background="new 0 0 37.465 33.682" xml:space="preserve">
<g>
	<text transform="matrix(1 0 0 1 0 30.7368)" fill="#FFFFFF" font-family="'HelveticaNeue'" font-size="9">Message</text>
</g>
<g>
	<path fill="none" stroke="#FFFFFF" stroke-miterlimit="10" d="M25.989,12.603c0.511-1.034,0.791-2.155,0.791-3.329
		C26.78,4.152,21.445,0,14.862,0C8.279,0,2.943,4.152,2.943,9.274c0,5.123,5.335,9.275,11.919,9.275
		c2.894,0,5.544-0.803,7.607-2.136l4.311,1.589c0,0,1.734,0.42,1.076-1.072C27.198,15.44,25.989,12.603,25.989,12.603z"/>
	<circle fill="none" stroke="#FFFFFF" stroke-width="0.5" stroke-miterlimit="10" cx="10.061" cy="9.275" r="1.871"/>
	<circle fill="none" stroke="#FFFFFF" stroke-width="0.5" stroke-miterlimit="10" cx="15.474" cy="9.275" r="1.871"/>
	<circle fill="none" stroke="#FFFFFF" stroke-width="0.5" stroke-miterlimit="10" cx="20.728" cy="9.275" r="1.871"/>
</g>
</svg>
