<?xml version="1.0" encoding="utf-8"?>
<!-- Generator: Adobe Illustrator 16.0.4, SVG Export Plug-In . SVG Version: 6.00 Build 0)  -->
<!DOCTYPE svg PUBLIC "-//W3C//DTD SVG 1.1//EN" "http://www.w3.org/Graphics/SVG/1.1/DTD/svg11.dtd">
<svg version="1.1" id="Layer_1" xmlns="http://www.w3.org/2000/svg" xmlns:xlink="http://www.w3.org/1999/xlink" x="0px" y="0px"
	 width="26.861px" height="27.653px" viewBox="0 0 26.861 27.653" enable-background="new 0 0 26.861 27.653" xml:space="preserve">
<g>
	<circle fill="none" stroke="#FFFFFF" stroke-miterlimit="10" cx="13.896" cy="13.71" r="5.577"/>
	<path fill="none" stroke="#FFFFFF" stroke-miterlimit="10" d="M10.061,3.405V0.5h7.264v2.905c0,0,2.905,1.452,3.158,1.831
		c0.253,0.38,2.906-0.758,2.906-0.758l3.473,5.432l-2.084,1.642l-0.127,4.106l2.211,1.769l-3.6,6l-2.211-1.073
		c0,0-2.841,1.895-3.474,1.768l-0.315,3.032h-6.949l-0.252-2.527c0,0-3.285-2.272-3.094-2.462c0.188-0.189-2.716,1.199-2.716,1.199
		l-3.537-6l2.526-1.137c0,0-0.633-4.105-0.38-4.295c0.254-0.191-2.146-1.959-2.146-1.959l3.537-5.682l2.398,1.261
		C6.649,5.552,9.746,3.342,10.061,3.405z"/>
</g>
</svg>
