<?xml version="1.0" encoding="utf-8"?>
<!-- Generator: Adobe Illustrator 16.0.4, SVG Export Plug-In . SVG Version: 6.00 Build 0)  -->
<!DOCTYPE svg PUBLIC "-//W3C//DTD SVG 1.1//EN" "http://www.w3.org/Graphics/SVG/1.1/DTD/svg11.dtd">
<svg version="1.1" id="Layer_1" xmlns="http://www.w3.org/2000/svg" xmlns:xlink="http://www.w3.org/1999/xlink" x="0px" y="0px"
	 width="33.108px" height="34.459px" viewBox="0 0 33.108 34.459" enable-background="new 0 0 33.108 34.459" xml:space="preserve">
<g>
	<circle fill="none" stroke="#6EB1D4" stroke-width="2" stroke-miterlimit="10" cx="16.774" cy="17.099" r="5.577"/>
	<path fill="none" stroke="#6EB1D4" stroke-width="2" stroke-miterlimit="10" d="M12.939,6.794V3.889h7.264v2.905
		c0,0,2.905,1.452,3.158,1.831c0.253,0.38,2.906-0.758,2.906-0.758l3.473,5.432l-2.084,1.642l-0.127,4.106l2.211,1.769l-3.6,6
		l-2.211-1.073c0,0-2.841,1.895-3.474,1.768l-0.315,3.032h-6.949l-0.252-2.527c0,0-3.285-2.272-3.094-2.462
		c0.188-0.189-2.716,1.199-2.716,1.199l-3.537-6l2.526-1.137c0,0-0.633-4.105-0.38-4.295c0.254-0.191-2.146-1.959-2.146-1.959
		L7.13,7.68L9.528,8.94C9.528,8.94,12.625,6.73,12.939,6.794z"/>
</g>
</svg>
