<?xml version="1.0" encoding="utf-8"?>
<!-- Generator: Adobe Illustrator 16.0.4, SVG Export Plug-In . SVG Version: 6.00 Build 0)  -->
<!DOCTYPE svg PUBLIC "-//W3C//DTD SVG 1.1//EN" "http://www.w3.org/Graphics/SVG/1.1/DTD/svg11.dtd">
<svg version="1.1" id="Layer_1" xmlns="http://www.w3.org/2000/svg" xmlns:xlink="http://www.w3.org/1999/xlink" x="0px" y="0px"
	 width="50.538px" height="52.844px" viewBox="293.962 383.656 50.538 52.844"
	 enable-background="new 293.962 383.656 50.538 52.844" xml:space="preserve">
<g>
	<path id="path4320" fill="none" stroke="#010101" stroke-width="0.48" stroke-linecap="round" stroke-linejoin="round" d="
		M341.365,408.357c0,12.538-10.166,22.702-22.701,22.702c-12.537,0-22.702-10.166-22.702-22.702
		c0-12.535,10.165-22.701,22.702-22.701S341.365,395.822,341.365,408.357z"/>
	<g>
		<path id="path8606" fill="#010101" d="M335.132,409.888c-3.798,6.573-8.233,11.313-16.135,11.313
			c-7.672,0-13.289-5.46-16.797-11.531c3.207,3.847,7.907,8.259,16.466,8.259C328.895,417.929,330.684,414.273,335.132,409.888z"/>
		<path id="path8614" fill="#010101" d="M315.588,401.178c0,3.146-1.414,5.664-3.146,5.664c-1.728,0-3.143-2.518-3.143-5.664
			c0-3.145,1.415-5.66,3.143-5.66C314.174,395.518,315.588,398.033,315.588,401.178z"/>
		<path id="path8616" fill="#010101" d="M327.275,401.178c0,3.146-1.413,5.664-3.145,5.664c-1.727,0-3.147-2.518-3.147-5.664
			c0-3.145,1.421-5.66,3.147-5.66C325.862,395.518,327.275,398.033,327.275,401.178z"/>
	</g>
</g>
</svg>
