<?xml version="1.0" encoding="utf-8"?>
<!-- Generator: Adobe Illustrator 16.0.4, SVG Export Plug-In . SVG Version: 6.00 Build 0)  -->
<!DOCTYPE svg PUBLIC "-//W3C//DTD SVG 1.1//EN" "http://www.w3.org/Graphics/SVG/1.1/DTD/svg11.dtd">
<svg version="1.1" id="Layer_1" xmlns="http://www.w3.org/2000/svg" xmlns:xlink="http://www.w3.org/1999/xlink" x="0px" y="0px"
	 width="24.647px" height="24.647px" viewBox="293.962 383.656 24.647 24.647"
	 enable-background="new 293.962 383.656 24.647 24.647" xml:space="preserve">
<g>
	<path id="path4320" fill="none" stroke="#010101" stroke-width="0.48" stroke-linecap="round" stroke-linejoin="round" d="
		M318.609,395.98c0,6.806-5.519,12.324-12.323,12.324c-6.806,0-12.324-5.519-12.324-12.324s5.518-12.324,12.324-12.324
		C313.092,383.656,318.609,389.175,318.609,395.98z"/>
	<g>
		<path id="path8606" fill="#010101" d="M315.226,396.811c-2.062,3.568-4.47,6.142-8.759,6.142c-4.165,0-7.214-2.964-9.119-6.26
			c1.741,2.088,4.292,4.483,8.939,4.483C311.84,401.176,312.811,399.191,315.226,396.811z"/>
		<path id="path8614" fill="#010101" d="M304.616,392.082c0,1.708-0.768,3.075-1.708,3.075c-0.938,0-1.706-1.367-1.706-3.075
			c0-1.707,0.768-3.072,1.706-3.072C303.848,389.01,304.616,390.375,304.616,392.082z"/>
		<path id="path8616" fill="#010101" d="M310.961,392.082c0,1.708-0.768,3.075-1.707,3.075c-0.938,0-1.709-1.367-1.709-3.075
			c0-1.707,0.771-3.072,1.709-3.072C310.193,389.01,310.961,390.375,310.961,392.082z"/>
	</g>
</g>
</svg>
